<?xml version="1.0" standalone="no"?>
<!DOCTYPE svg PUBLIC "-//W3C//DTD SVG 20010904//EN"
 "http://www.w3.org/TR/2001/REC-SVG-20010904/DTD/svg10.dtd">
<svg version="1.0" xmlns="http://www.w3.org/2000/svg"
 width="700.000000pt" height="700.000000pt" viewBox="0 0 700.000000 700.000000"
 preserveAspectRatio="xMidYMid meet">
<metadata>
Created by potrace 1.14, written by Peter Selinger 2001-2017
</metadata>
<g transform="translate(0.000000,700.000000) scale(0.100000,-0.100000)"
fill="#000000" stroke="none">
<path d="M1127 6884 c-4 -4 -7 -974 -7 -2156 l0 -2148 150 0 150 0 2 1882 3
1882 123 -329 c68 -182 315 -842 549 -1468 l425 -1137 201 2 200 3 544 1450
c298 798 547 1459 552 1470 6 13 10 -244 10 -697 l1 -718 -190 0 -190 0 0
-2155 0 -2155 1243 2 1242 3 0 115 0 115 -1097 3 -1098 2 0 970 0 970 45 0 45
0 0 -105 0 -105 145 0 145 0 0 105 0 105 835 0 835 0 0 120 0 120 -835 0 -835
0 0 825 0 825 880 0 880 0 0 120 0 120 -880 0 -880 0 0 985 0 985 -195 0
c-175 0 -195 -2 -204 -17 -5 -10 -233 -612 -506 -1338 -274 -726 -542 -1437
-596 -1580 -92 -245 -98 -258 -109 -230 -6 17 -275 734 -598 1595 l-587 1565
-196 3 c-107 1 -198 -1 -202 -4z m2903 -3029 l0 -825 -45 0 -45 0 0 825 0 825
45 0 45 0 0 -825z"/>
</g>
</svg>
